normalP072_grf.mot
version=1
nRows=27
nColumns=19
inDegrees=yes
endheader
time	1_ground_force_vx	1_ground_force_vy	1_ground_force_vz	1_ground_force_px	1_ground_force_py	1_ground_force_pz	1_ground_torque_x	1_ground_torque_y	1_ground_torque_z	2_ground_force_vx	2_ground_force_vy	2_ground_force_vz	2_ground_force_px	2_ground_force_py	2_ground_force_pz	2_ground_torque_x	2_ground_torque_y	2_ground_torque_z
            1.500000	         -101.803151	          785.470751	           -7.018164	            0.173272	            0.003497	           -0.215076	           -0.072881	            0.562322	           -0.005024	           -0.008397	            0.847795	           -0.000460	            0.803739	            0.001545	           -0.312760	            0.024177	            0.001488	           -0.061412
            1.501000	         -101.986964	          787.783005	           -7.063512	            0.173884	            0.003495	           -0.215190	           -0.065768	            0.508013	           -0.004555	            0.020499	            0.127100	           -0.026485	            0.803739	            0.001545	           -0.312760	           -0.060001	           -0.001689	            0.084233
            1.502000	         -102.227773	          788.979741	           -7.158917	            0.174207	            0.003494	           -0.215170	           -0.059675	            0.460563	           -0.004179	            0.013782	            0.527162	            0.028957	            0.803739	            0.001545	           -0.312760	           -0.043103	            0.008785	           -0.019652
            1.503000	         -102.413609	          790.651638	           -7.160587	            0.175079	            0.003491	           -0.215049	           -0.056655	            0.437387	           -0.003961	            0.059628	            0.447375	           -0.025313	            0.803739	            0.001545	           -0.312760	           -0.026454	           -0.011051	            0.001182
            1.504000	         -102.616361	          791.767471	           -7.187210	            0.175571	            0.003489	           -0.215050	           -0.052485	            0.404966	           -0.003676	           -0.025096	            0.286626	           -0.002703	            0.803739	            0.001545	           -0.312760	           -0.127006	           -0.001774	            0.042475
            1.505000	         -102.948920	          793.042173	           -7.289840	            0.176086	            0.003488	           -0.215105	           -0.051625	            0.397684	           -0.003656	            0.020362	            0.048927	           -0.042119	            0.803739	            0.001545	           -0.312760	            0.090995	           -0.013763	           -0.019661
            1.506000	         -103.088751	          794.794453	           -7.329450	            0.176780	            0.003486	           -0.215138	           -0.050070	            0.386034	           -0.003560	           -0.033136	            0.127555	           -0.034036	            0.803739	            0.001545	           -0.312760	           -0.093570	           -0.002385	           -0.040465
            1.507000	         -103.298090	          796.389615	           -7.415706	            0.177341	            0.003484	           -0.215121	           -0.048721	            0.375622	           -0.003498	           -0.041385	           -0.111630	           -0.034883	            0.803739	            0.001545	           -0.312760	           -0.009654	            0.003713	           -0.019688
            1.508000	         -103.493127	          797.662959	           -7.503049	            0.177956	            0.003482	           -0.215052	           -0.050003	            0.385396	           -0.003625	            0.021521	            0.526889	           -0.001796	            0.803739	            0.001545	           -0.312760	           -0.043158	           -0.012509	            0.063392
            1.509000	         -103.549251	          799.336792	           -7.696108	            0.178500	            0.003481	           -0.215188	           -0.050480	            0.389672	           -0.003752	            0.044095	            0.367349	           -0.002542	            0.803739	            0.001545	           -0.312760	           -0.043243	           -0.008905	           -0.019603
            1.510000	         -103.622085	          800.532344	           -7.867921	            0.178865	            0.003480	           -0.215179	           -0.052329	            0.404270	           -0.003973	           -0.002509	            0.127553	           -0.011108	            0.803739	            0.001545	           -0.312760	           -0.026582	            0.000022	            0.042959
            1.511000	         -103.623648	          802.525276	           -8.128661	            0.179609	            0.003477	           -0.215084	           -0.058017	            0.449317	           -0.004551	            0.020118	           -0.032361	           -0.011855	            0.803739	            0.001545	           -0.312760	           -0.026552	           -0.012807	            0.042745
            1.512000	         -103.582140	          803.557982	           -8.469342	            0.180411	            0.003475	           -0.215280	           -0.061508	            0.477160	           -0.005029	           -0.002096	            0.287868	            0.012679	            0.803739	            0.001545	           -0.312760	            0.040734	           -0.000565	            0.042698
            1.513000	         -103.447687	          804.993234	           -8.808606	            0.180886	            0.003473	           -0.215144	           -0.069650	            0.541994	           -0.005931	            0.035127	           -0.192187	           -0.004339	            0.803739	            0.001545	           -0.312760	           -0.060141	            0.002270	           -0.040276
            1.514000	         -103.306240	          806.187298	           -9.133510	            0.181451	            0.003472	           -0.215136	           -0.072479	            0.565618	           -0.006408	           -0.002620	            0.047435	            0.004277	            0.803739	            0.001545	           -0.312760	           -0.076949	           -0.001369	           -0.019406
            1.515000	         -103.074198	          807.062525	           -9.505367	            0.182019	            0.003470	           -0.215164	           -0.081043	            0.634562	           -0.007474	           -0.009693	            0.287757	           -0.002314	            0.803739	            0.001545	           -0.312760	            0.040710	            0.006307	            0.084361
            1.516000	         -102.854552	          808.814681	           -9.835856	            0.182689	            0.003468	           -0.215161	           -0.084824	            0.667028	           -0.008112	            0.028475	            0.207222	            0.004917	            0.803739	            0.001545	           -0.312760	           -0.076797	           -0.011034	           -0.019705
            1.517000	         -102.583421	          809.929658	          -10.199238	            0.183212	            0.003466	           -0.215135	           -0.091348	            0.721222	           -0.009082	            0.012956	            0.127727	            0.004653	            0.803739	            0.001545	           -0.312760	            0.007081	           -0.010709	            0.042705
            1.518000	         -102.167944	          810.723398	          -10.471969	            0.183789	            0.003464	           -0.215131	           -0.093960	            0.745594	           -0.009631	            0.005476	            0.206818	            0.004969	            0.803739	            0.001545	           -0.312760	           -0.110364	           -0.008727	            0.021867
            1.519000	         -101.790238	          811.678486	          -10.759308	            0.184134	            0.003463	           -0.215098	           -0.100891	            0.804509	           -0.010664	           -0.002366	            0.128322	           -0.041364	            0.803739	            0.001545	           -0.312760	            0.006938	           -0.005643	           -0.040120
            1.520000	         -101.320061	          812.871183	          -10.976910	            0.184741	            0.003462	           -0.215215	           -0.103853	            0.833195	           -0.011251	            0.028836	            0.367666	           -0.009764	            0.803739	            0.001545	           -0.312760	            0.057493	            0.001783	            0.105137
            1.521000	         -100.826742	          814.142773	          -11.071707	            0.185433	            0.003460	           -0.215313	           -0.106036	            0.856205	           -0.011644	           -0.002009	            0.288054	            0.012899	            0.803739	            0.001545	           -0.312760	            0.040673	           -0.010172	            0.001166
            1.522000	         -100.329950	          813.978626	          -11.164037	            0.185818	            0.003458	           -0.215268	           -0.107845	            0.874948	           -0.012000	            0.020021	           -0.111549	           -0.003853	            0.803739	            0.001545	           -0.312760	            0.057448	            0.004068	            0.021951
            1.523000	          -99.731220	          814.691187	          -11.145945	            0.186353	            0.003457	           -0.215281	           -0.110479	            0.902484	           -0.012347	            0.030051	            0.845760	           -0.023230	            0.803739	            0.001545	           -0.312760	           -0.110184	           -0.010867	            0.146427
            1.524000	          -99.188250	          814.686540	          -11.122825	            0.186761	            0.003455	           -0.215204	           -0.113779	            0.934532	           -0.012759	            0.013750	            0.447308	           -0.001457	            0.803739	            0.001545	           -0.312760	           -0.059976	            0.008547	           -0.040305
            1.525000	          -98.582987	          815.080054	          -11.021739	            0.187300	            0.003454	           -0.215242	           -0.114528	            0.946917	           -0.012804	            0.013205	            0.207446	            0.005246	            0.803739	            0.001545	           -0.312760	           -0.076823	           -0.006202	           -0.061180
            1.526000	          -97.970334	          815.311997	          -10.859929	            0.187867	            0.003452	           -0.215353	           -0.112425	            0.935602	           -0.012462	           -0.002729	           -0.032295	            0.012058	            0.803739	            0.001545	           -0.312760	           -0.060043	            0.002901	           -0.040393
